# xmcd CD database file
#
# Track frame offsets:
#	150
#	18320
#	40282
#	66337
#	78925
#	102347
#	121365
#	132357
#	162357
#	188450
#	209362
#
# Disc length: 3109 seconds
#
# Revision: 0
# Processed by: cddbd v1.4PL0 Copyright (c) Steve Scherf et al.
# Submitted via: CDex 1.50beta9
#
DISCID=910c230b
DTITLE=Howar Alden Trio - Snowy Morning Blues
DYEAR=1990
DGENRE=Jazz
TTITLE0=One Morning In May
TTITLE1=I'm Through With Love
TTITLE2=Bye-Ya
TTITLE3=Melancholia
TTITLE4=Sleepy Time Gal
TTITLE5=Le Sucrier Velour
TTITLE6=Dancers In Love
TTITLE7=Snowy Morning Blues
TTITLE8=Ask Me Now
TTITLE9=You Leave Me Breathless
TTITLE10=Swing
EXTD=YEAR: 1990
EXTT0=
EXTT1=
EXTT2=
EXTT3=
EXTT4=
EXTT5=
EXTT6=
EXTT7=
EXTT8=
EXTT9=
EXTT10=
PLAYORDER=
